<svg xmlns="http://www.w3.org/2000/svg" version="1.1" xmlns:xlink="http://www.w3.org/1999/xlink" xmlns:svgjs="http://svgjs.dev/svgjs" width="2000" height="383" viewBox="0 0 2000 383"><g transform="matrix(1,0,0,1,-1.2121212121212466,-1.1005083629875685)"><svg viewBox="0 0 396 76" data-background-color="#ffffff" preserveAspectRatio="xMidYMid meet" height="383" width="2000" xmlns="http://www.w3.org/2000/svg" xmlns:xlink="http://www.w3.org/1999/xlink"><g id="tight-bounds" transform="matrix(1,0,0,1,0.2400000000000091,0.21837763860850146)"><svg viewBox="0 0 395.52 75.56324472278297" height="75.56324472278297" width="395.52"><g><svg viewBox="0 0 512.5553848092719 97.92260309547737" height="75.56324472278297" width="395.52"><g transform="matrix(1,0,0,1,0,13.533442251256275)"><svg viewBox="0 0 395.52 70.85571859296482" height="70.85571859296482" width="395.52"><g id="textblocktransform"><svg viewBox="0 0 395.52 70.85571859296482" height="70.85571859296482" width="395.52" id="textblock"><g><svg viewBox="0 0 395.52 70.85571859296482" height="70.85571859296482" width="395.52"><g transform="matrix(1,0,0,1,0,0)"><svg width="395.52" viewBox="2.55 -35 198.98 35.65" height="70.85571859296482" data-palette-color="#000000"><g class="wordmark-text-0" data-fill-palette-color="primary" id="text-0"><path d="M15.05 0.65L15.05 0.65Q11.35 0.65 8.53-0.98 5.7-2.6 4.13-5.65 2.55-8.7 2.55-13.05L2.55-13.05Q2.55-17.55 4.23-20.53 5.9-23.5 8.7-25 11.5-26.5 14.95-26.5L14.95-26.5Q18.55-26.5 21.38-24.93 24.2-23.35 25.85-20.33 27.5-17.3 27.5-12.85L27.5-12.85Q27.5-8.4 25.88-5.4 24.25-2.4 21.43-0.88 18.6 0.65 15.05 0.65ZM15.25-3.1L15.25-3.1Q17.65-3.1 19.38-4.28 21.1-5.45 22.03-7.6 22.95-9.75 22.95-12.7L22.95-12.7Q22.95-15.75 21.98-17.98 21-20.2 19.2-21.43 17.4-22.65 14.85-22.65L14.85-22.65Q12.5-22.65 10.78-21.55 9.05-20.45 8.1-18.32 7.15-16.2 7.15-13.15L7.15-13.15Q7.15-8.45 9.33-5.78 11.5-3.1 15.25-3.1ZM46.55 0L40.25 0 31-25.8 36.05-25.8 43.1-3.85 43.8-3.85 50.8-25.8 55.75-25.8 46.55 0ZM71.75 0.65L71.75 0.65Q68.7 0.65 66.37-0.28 64.05-1.2 62.45-2.95 60.85-4.7 60.05-7.1 59.25-9.5 59.25-12.5L59.25-12.5Q59.25-15.55 60.05-18.1 60.85-20.65 62.4-22.55 63.95-24.45 66.2-25.48 68.45-26.5 71.35-26.5L71.35-26.5Q73.9-26.5 76-25.65 78.1-24.8 79.57-23.03 81.05-21.25 81.8-18.57 82.55-15.9 82.4-12.3L82.4-12.3 62.1-12.15 62.1-15.25 79.65-15.4 78.1-13.3Q78.35-16.45 77.5-18.5 76.65-20.55 75.07-21.6 73.5-22.65 71.35-22.65L71.35-22.65Q69.05-22.65 67.3-21.45 65.55-20.25 64.62-18 63.7-15.75 63.7-12.55L63.7-12.55Q63.7-7.95 65.75-5.53 67.8-3.1 71.8-3.1L71.8-3.1Q73.4-3.1 74.57-3.48 75.75-3.85 76.57-4.53 77.4-5.2 77.92-6.1 78.45-7 78.75-8.05L78.75-8.05 82.75-7.1Q82.3-5.3 81.37-3.88 80.45-2.45 79.07-1.45 77.7-0.45 75.9 0.1 74.1 0.65 71.75 0.65ZM93.39 0L88.84 0 88.84-14 88.84-25.85 92.94-25.85 92.54-16.85 93.39-16.85Q93.84-19.8 94.79-21.95 95.74-24.1 97.32-25.3 98.89-26.5 101.24-26.5L101.24-26.5Q101.74-26.5 102.39-26.43 103.04-26.35 103.89-26.05L103.89-26.05 103.64-21.3Q102.89-21.6 102.14-21.73 101.39-21.85 100.69-21.85L100.69-21.85Q98.74-21.85 97.32-20.6 95.89-19.35 94.94-17.23 93.99-15.1 93.39-12.45L93.39-12.45 93.39 0ZM113.34 0L108.79 0 108.79-35 113.34-35 113.34 0ZM132.29 0.65L132.29 0.65Q128.59 0.65 125.76-0.98 122.94-2.6 121.36-5.65 119.79-8.7 119.79-13.05L119.79-13.05Q119.79-17.55 121.46-20.53 123.14-23.5 125.94-25 128.74-26.5 132.19-26.5L132.19-26.5Q135.79-26.5 138.61-24.93 141.44-23.35 143.09-20.33 144.74-17.3 144.74-12.85L144.74-12.85Q144.74-8.4 143.11-5.4 141.49-2.4 138.66-0.88 135.84 0.65 132.29 0.65ZM132.49-3.1L132.49-3.1Q134.89-3.1 136.61-4.28 138.34-5.45 139.26-7.6 140.19-9.75 140.19-12.7L140.19-12.7Q140.19-15.75 139.21-17.98 138.24-20.2 136.44-21.43 134.64-22.65 132.09-22.65L132.09-22.65Q129.74-22.65 128.01-21.55 126.29-20.45 125.34-18.32 124.39-16.2 124.39-13.15L124.39-13.15Q124.39-8.45 126.56-5.78 128.74-3.1 132.49-3.1ZM157.19 0.65L157.19 0.65Q155.09 0.65 153.39-0.18 151.69-1 150.69-2.63 149.69-4.25 149.69-6.75L149.69-6.75Q149.69-8.6 150.36-10 151.04-11.4 152.46-12.4 153.89-13.4 156.14-14.05 158.39-14.7 161.64-15.15L161.64-15.15Q163.49-15.4 164.66-15.65 165.84-15.9 166.39-16.48 166.94-17.05 166.94-18.2L166.94-18.2Q166.94-20.1 165.64-21.4 164.34-22.7 161.54-22.7L161.54-22.7Q160.09-22.7 158.59-22.2 157.09-21.7 155.96-20.53 154.84-19.35 154.54-17.25L154.54-17.25 150.34-18.65Q150.74-20.45 151.66-21.9 152.59-23.35 154.04-24.38 155.49-25.4 157.41-25.95 159.34-26.5 161.69-26.5L161.69-26.5Q164.94-26.5 167.11-25.4 169.29-24.3 170.36-22.03 171.44-19.75 171.44-16.2L171.44-16.2 171.44-10.45Q171.44-8.9 171.51-7.08 171.59-5.25 171.74-3.43 171.89-1.6 172.04 0L172.04 0 167.84 0Q167.69-1.6 167.56-3.2 167.44-4.8 167.39-6.4L167.39-6.4 166.74-6.4Q165.99-4.55 164.74-2.95 163.49-1.35 161.61-0.35 159.74 0.65 157.19 0.65ZM158.54-3.05L158.54-3.05Q159.64-3.05 160.76-3.4 161.89-3.75 163.01-4.55 164.14-5.35 165.16-6.6 166.19-7.85 166.99-9.6L166.99-9.6 166.99-14.6 168.29-14.35Q167.49-13.55 166.16-13.15 164.84-12.75 163.24-12.5 161.64-12.25 160.04-11.98 158.44-11.7 157.11-11.18 155.79-10.65 154.99-9.7 154.19-8.75 154.19-7.1L154.19-7.1Q154.19-5.1 155.39-4.08 156.59-3.05 158.54-3.05ZM188.18 0.65L188.18 0.65Q184.88 0.65 182.53-1.1 180.18-2.85 178.96-5.9 177.73-8.95 177.73-12.9L177.73-12.9Q177.73-16.85 178.93-19.9 180.13-22.95 182.43-24.7 184.73-26.45 188.08-26.45L188.08-26.45Q190.83-26.45 192.58-25.3 194.33-24.15 195.41-22.33 196.48-20.5 196.98-18.35L196.98-18.35 197.88-18.35Q197.63-19.8 197.43-21.38 197.23-22.95 197.08-24.48 196.93-26 196.93-27.2L196.93-27.2 196.93-35 201.53-35 201.53-12.75 201.53 0 197.43 0 197.68-7 196.88-7Q196.28-4.75 195.18-3.03 194.08-1.3 192.38-0.33 190.68 0.65 188.18 0.65ZM189.23-3.35L189.23-3.35Q191.03-3.35 192.48-4.2 193.93-5.05 194.93-6.43 195.93-7.8 196.46-9.4 196.98-11 196.98-12.5L196.98-12.5 196.98-13.1Q196.98-14.15 196.68-15.38 196.38-16.6 195.81-17.85 195.23-19.1 194.31-20.18 193.38-21.25 192.13-21.88 190.88-22.5 189.33-22.5L189.33-22.5Q187.08-22.5 185.56-21.23 184.03-19.95 183.26-17.75 182.48-15.55 182.48-12.8L182.48-12.8Q182.48-9.95 183.28-7.83 184.08-5.7 185.61-4.53 187.13-3.35 189.23-3.35Z" fill="#000000" data-fill-palette-color="primary"></path></g></svg></g></svg></g></svg></g></svg></g><g transform="matrix(1,0,0,1,412.2473346225527,0)"><svg viewBox="0 0 100.30805018671921 97.92260309547737" height="97.92260309547737" width="100.30805018671921"><g><svg xmlns="http://www.w3.org/2000/svg" xmlns:xlink="http://www.w3.org/1999/xlink" version="1.1" x="0" y="0" viewBox="8 8.899999999999999 84.1 82.1" style="enable-background:new 0 0 100 100;" xml:space="preserve" height="97.92260309547737" width="100.30805018671921" class="icon-icon-0" data-fill-palette-color="accent" id="icon-0"><g fill="#d54625" data-fill-palette-color="accent"><path d="M81 9c-6.1 0-11 4.9-11 11 0 1.2 0.2 2.4 0.6 3.6L54.3 39.9C53 39.3 51.5 39 50 39c-6.1 0-11 4.9-11 11s4.9 11 11 11 11-4.9 11-11c0-2.4-0.8-4.5-2-6.3l15.1-15.1C76 30.1 78.4 31 81 31c6.1 0 11-4.9 11-11S87.1 9 81 9zM50 55c-2.8 0-5-2.2-5-5s2.2-5 5-5 5 2.2 5 5S52.8 55 50 55zM81 25c-2.8 0-5-2.2-5-5s2.2-5 5-5 5 2.2 5 5S83.8 25 81 25z" fill="#d54625" data-fill-palette-color="accent"></path><path d="M50 31c6.1 0 11-4.9 11-11S56.1 9 50 9s-11 4.9-11 11S43.9 31 50 31zM50 15c2.8 0 5 2.2 5 5s-2.2 5-5 5-5-2.2-5-5S47.2 15 50 15z" fill="#d54625" data-fill-palette-color="accent"></path><path d="M81 39c-6.1 0-11 4.9-11 11s4.9 11 11 11 11-4.9 11-11S87.1 39 81 39zM81 55c-2.8 0-5-2.2-5-5s2.2-5 5-5 5 2.2 5 5S83.8 55 81 55z" fill="#d54625" data-fill-palette-color="accent"></path><path d="M19 91c6.1 0 11-4.9 11-11s-4.9-11-11-11S8 73.9 8 80 12.9 91 19 91zM19 75c2.8 0 5 2.2 5 5s-2.2 5-5 5-5-2.2-5-5S16.2 75 19 75z" fill="#d54625" data-fill-palette-color="accent"></path><path d="M81 69c-5 0-9.3 3.4-10.6 8h-9.9c-1.3-4.6-5.5-8-10.6-8-3 0-5.8 1.2-7.8 3.2l-15-15C29 55.3 30 52.8 30 50c0-5-3.4-9.3-8-10.6v-8.9c4.6-1.3 8-5.5 8-10.6 0-6.1-4.9-11-11-11S8 13.9 8 20c0 5 3.4 9.3 8 10.6v8.9C11.4 40.7 8 45 8 50c0 6.1 4.9 11 11 11 1.1 0 2.1-0.2 3.1-0.4l17.2 17.2C39.1 78.5 39 79.2 39 80c0 6.1 4.9 11 11 11 5 0 9.3-3.4 10.6-8h9.9c1.3 4.6 5.5 8 10.6 8 6.1 0 11-4.9 11-11S87.1 69 81 69zM14 20c0-2.8 2.2-5 5-5s5 2.2 5 5-2.2 5-5 5S14 22.8 14 20zM14 50c0-2.8 2.2-5 5-5s5 2.2 5 5-2.2 5-5 5S14 52.8 14 50zM50 85c-2.8 0-5-2.2-5-5s2.2-5 5-5 5 2.2 5 5S52.8 85 50 85zM81 85c-2.8 0-5-2.2-5-5s2.2-5 5-5 5 2.2 5 5S83.8 85 81 85z" fill="#d54625" data-fill-palette-color="accent"></path></g></svg></g></svg></g></svg></g><defs></defs></svg><rect width="395.52" height="75.56324472278297" fill="none" stroke="none" visibility="hidden"></rect></g></svg></g></svg>