<svg xmlns="http://www.w3.org/2000/svg" version="1.1" xmlns:xlink="http://www.w3.org/1999/xlink" xmlns:svgjs="http://svgjs.dev/svgjs" width="2000" height="2000" viewBox="0 0 2000 2000"><g transform="matrix(1,0,0,1,0,0)"><svg viewBox="0 0 280 280" data-background-color="#080808" preserveAspectRatio="xMidYMid meet" height="2000" width="2000" xmlns="http://www.w3.org/2000/svg" xmlns:xlink="http://www.w3.org/1999/xlink"><g id="tight-bounds" transform="matrix(1,0,0,1,0,0)"><svg viewBox="0 0 280 280" height="280" width="280"><g><svg viewBox="0 0 280 280" height="280" width="280"><g><svg viewBox="0 0 280 280" height="280" width="280"><g id="textblocktransform"><svg viewBox="0 0 280 280" height="280" width="280" id="textblock"><g><svg viewBox="0 0 280 280" height="280" width="280"><g transform="matrix(1,0,0,1,74.00336708925556,75.57284706335174)"><svg viewBox="0 0 131.99326582148888 128.8543058732965" height="128.8543058732965" width="131.99326582148888"><g id="icon-0"><svg xmlns="http://www.w3.org/2000/svg" xmlns:xlink="http://www.w3.org/1999/xlink" version="1.1" x="0" y="0" viewBox="8 8.899999999999999 84.1 82.1" style="enable-background:new 0 0 100 100;" xml:space="preserve" height="128.8543058732965" width="131.99326582148888" class="icon-xg-0" data-fill-palette-color="accent" id="xg-0"><g fill="#d54625" data-fill-palette-color="accent"><path d="M81 9c-6.1 0-11 4.9-11 11 0 1.2 0.2 2.4 0.6 3.6L54.3 39.9C53 39.3 51.5 39 50 39c-6.1 0-11 4.9-11 11s4.9 11 11 11 11-4.9 11-11c0-2.4-0.8-4.5-2-6.3l15.1-15.1C76 30.1 78.4 31 81 31c6.1 0 11-4.9 11-11S87.1 9 81 9zM50 55c-2.8 0-5-2.2-5-5s2.2-5 5-5 5 2.2 5 5S52.8 55 50 55zM81 25c-2.8 0-5-2.2-5-5s2.2-5 5-5 5 2.2 5 5S83.8 25 81 25z" fill="#000000" data-fill-palette-color="accent"></path><path d="M50 31c6.1 0 11-4.9 11-11S56.1 9 50 9s-11 4.9-11 11S43.9 31 50 31zM50 15c2.8 0 5 2.2 5 5s-2.2 5-5 5-5-2.2-5-5S47.2 15 50 15z" fill="#000000" data-fill-palette-color="accent"></path><path d="M81 39c-6.1 0-11 4.9-11 11s4.9 11 11 11 11-4.9 11-11S87.1 39 81 39zM81 55c-2.8 0-5-2.2-5-5s2.2-5 5-5 5 2.2 5 5S83.8 55 81 55z" fill="#000000" data-fill-palette-color="accent"></path><path d="M19 91c6.1 0 11-4.9 11-11s-4.9-11-11-11S8 73.9 8 80 12.9 91 19 91zM19 75c2.8 0 5 2.2 5 5s-2.2 5-5 5-5-2.2-5-5S16.2 75 19 75z" fill="#000000" data-fill-palette-color="accent"></path><path d="M81 69c-5 0-9.3 3.4-10.6 8h-9.9c-1.3-4.6-5.5-8-10.6-8-3 0-5.8 1.2-7.8 3.2l-15-15C29 55.3 30 52.8 30 50c0-5-3.4-9.3-8-10.6v-8.9c4.6-1.3 8-5.5 8-10.6 0-6.1-4.9-11-11-11S8 13.9 8 20c0 5 3.4 9.3 8 10.6v8.9C11.4 40.7 8 45 8 50c0 6.1 4.9 11 11 11 1.1 0 2.1-0.2 3.1-0.4l17.2 17.2C39.1 78.5 39 79.2 39 80c0 6.1 4.9 11 11 11 5 0 9.3-3.4 10.6-8h9.9c1.3 4.6 5.5 8 10.6 8 6.1 0 11-4.9 11-11S87.1 69 81 69zM14 20c0-2.8 2.2-5 5-5s5 2.2 5 5-2.2 5-5 5S14 22.8 14 20zM14 50c0-2.8 2.2-5 5-5s5 2.2 5 5-2.2 5-5 5S14 52.8 14 50zM50 85c-2.8 0-5-2.2-5-5s2.2-5 5-5 5 2.2 5 5S52.8 85 50 85zM81 85c-2.8 0-5-2.2-5-5s2.2-5 5-5 5 2.2 5 5S83.8 85 81 85z" fill="#000000" data-fill-palette-color="accent"></path></g></svg></g></svg></g><g id="text-0"><path d="M33.263 102.764v0c-0.696 1.961-1.74 3.539-3.134 4.732-1.391 1.187-3.041 1.914-4.95 2.179-1.915 0.263-4.024-0.014-6.329-0.831v0c-2.386-0.846-4.212-1.993-5.478-3.44-1.257-1.451-2.02-3.058-2.289-4.82-0.266-1.768-0.076-3.564 0.571-5.388v0c0.678-1.911 1.698-3.469 3.061-4.674 1.366-1.196 3.004-1.948 4.913-2.255 1.915-0.305 4.054-0.039 6.415 0.798v0c2.355 0.835 4.176 1.966 5.463 3.393 1.283 1.418 2.065 3.021 2.346 4.808 0.274 1.785 0.078 3.617-0.589 5.498zM30.34 101.548v0c0.452-1.274 0.527-2.478 0.226-3.612-0.295-1.131-0.927-2.146-1.895-3.045-0.964-0.89-2.23-1.614-3.798-2.169v0c-1.612-0.572-3.098-0.81-4.461-0.717-1.364 0.1-2.541 0.512-3.529 1.238-0.989 0.725-1.722 1.763-2.201 3.111v0c-0.441 1.243-0.53 2.428-0.269 3.555 0.258 1.118 0.859 2.129 1.804 3.034 0.947 0.898 2.23 1.635 3.848 2.208v0c2.492 0.884 4.651 1.002 6.476 0.356 1.828-0.653 3.094-1.972 3.799-3.959z" fill="#000000" data-fill-palette-color="primary"></path><path d="M56.052 64.942l-3.507 3.998-21.5-8.49 2.806-3.199 17.837 7.737 0.393-0.448-10.023-16.646 2.753-3.139z" fill="#000000" data-fill-palette-color="primary"></path><path d="M87.705 41.699v0c-1.508 0.82-2.959 1.314-4.354 1.483-1.397 0.163-2.726 0.029-3.986-0.402-1.263-0.437-2.414-1.14-3.453-2.106-1.042-0.973-1.966-2.202-2.772-3.687v0c-0.816-1.502-1.37-2.993-1.661-4.472-0.287-1.473-0.302-2.887-0.042-4.242 0.25-1.358 0.794-2.592 1.631-3.704 0.84-1.105 1.976-2.047 3.409-2.825v0c1.258-0.683 2.522-1.099 3.792-1.246 1.264-0.144 2.498 0.023 3.7 0.501 1.206 0.484 2.354 1.285 3.445 2.405 1.085 1.123 2.075 2.591 2.971 4.405v0l-14.989 8.291-1.248-2.297 12.945-7.181-0.295 2.185c-0.726-1.627-1.574-2.833-2.544-3.619-0.97-0.785-1.986-1.225-3.047-1.319-1.062-0.094-2.123 0.147-3.183 0.722v0c-1.136 0.617-1.976 1.458-2.521 2.524-0.539 1.062-0.737 2.275-0.592 3.637 0.15 1.359 0.654 2.828 1.512 4.406v0c1.234 2.271 2.684 3.731 4.348 4.38 1.665 0.649 3.485 0.437 5.459-0.635v0c0.792-0.43 1.429-0.897 1.91-1.4 0.475-0.5 0.827-1.026 1.054-1.58 0.227-0.553 0.35-1.126 0.368-1.716 0.016-0.582-0.042-1.173-0.171-1.774v0l3.345-0.901c0.26 1.005 0.354 1.984 0.283 2.935-0.077 0.955-0.322 1.865-0.735 2.73-0.407 0.862-0.983 1.669-1.728 2.421-0.742 0.758-1.693 1.452-2.851 2.081z" fill="#000000" data-fill-palette-color="primary"></path><path d="M122.188 29.799l-3.79 0.605-1.862-11.663-1.574-9.866 3.416-0.545 0.862 7.544 0.707-0.113c-0.012-1.676 0.151-3.152 0.491-4.428 0.339-1.282 0.89-2.327 1.654-3.133 0.771-0.801 1.808-1.305 3.111-1.513v0c0.281-0.045 0.605-0.076 0.971-0.095 0.366-0.018 0.799 0.02 1.297 0.115v0l0.426 3.989c-0.446-0.103-0.88-0.155-1.303-0.154-0.43-0.005-0.839 0.023-1.225 0.085v0c-1.086 0.173-1.97 0.67-2.652 1.49-0.681 0.82-1.19 1.861-1.525 3.123-0.341 1.269-0.561 2.667-0.659 4.192v0z" fill="#000000" data-fill-palette-color="primary"></path><path d="M158.108 29.772l-3.811-0.452 3.483-29.32 3.811 0.453z" fill="#000000" data-fill-palette-color="primary"></path><path d="M190.501 41.478v0c-1.875-0.902-3.331-2.11-4.368-3.625-1.031-1.511-1.576-3.229-1.634-5.155-0.056-1.932 0.446-4 1.507-6.204v0c1.098-2.281 2.434-3.973 4.009-5.076 1.578-1.094 3.257-1.68 5.038-1.757 1.786-0.075 3.551 0.308 5.295 1.147v0c1.827 0.879 3.267 2.061 4.318 3.545 1.042 1.487 1.614 3.196 1.714 5.127 0.098 1.937-0.397 4.034-1.483 6.292v0c-1.083 2.252-2.404 3.94-3.961 5.067-1.548 1.123-3.226 1.728-5.032 1.815-1.804 0.081-3.605-0.311-5.403-1.176zM192.025 38.702v0c1.218 0.586 2.407 0.791 3.566 0.613 1.156-0.172 2.233-0.69 3.231-1.556 0.989-0.863 1.844-2.044 2.565-3.543v0c0.741-1.541 1.139-2.993 1.193-4.358 0.047-1.367-0.236-2.581-0.851-3.642-0.615-1.061-1.567-1.902-2.858-2.522v0c-1.188-0.572-2.357-0.788-3.504-0.65-1.139 0.136-2.209 0.625-3.211 1.468-0.995 0.845-1.865 2.041-2.609 3.587v0c-1.147 2.383-1.497 4.517-1.05 6.401 0.453 1.887 1.628 3.288 3.528 4.202z" fill="#000000" data-fill-palette-color="primary"></path><path d="M221.599 64.489v0c-0.805-0.862-1.364-1.801-1.676-2.815-0.317-1.019-0.333-2.047-0.049-3.082 0.289-1.031 0.947-2.026 1.974-2.985v0c0.761-0.71 1.556-1.194 2.385-1.451 0.834-0.262 1.731-0.292 2.69-0.091 0.959 0.202 2.004 0.641 3.134 1.318 1.13 0.677 2.412 1.598 3.844 2.763v0c0.817 0.661 1.5 1.184 2.049 1.568 0.554 0.39 1.056 0.587 1.506 0.594 0.445 0.001 0.903-0.217 1.373-0.656v0c0.78-0.728 1.19-1.61 1.23-2.645 0.035-1.03-0.485-2.122-1.561-3.275v0c-0.556-0.596-1.223-1.107-2.001-1.532-0.783-0.421-1.631-0.64-2.545-0.657-0.914-0.008-1.861 0.328-2.841 1.006v0l-1.558-3.387c0.895-0.527 1.817-0.88 2.766-1.059 0.953-0.174 1.919-0.159 2.896 0.044 0.978 0.202 1.949 0.592 2.914 1.169 0.96 0.582 1.892 1.357 2.797 2.326v0c1.248 1.337 2.063 2.662 2.445 3.974 0.386 1.317 0.317 2.632-0.206 3.946-0.523 1.314-1.514 2.651-2.973 4.012v0l-3.546 3.311c-0.639 0.597-1.321 1.26-2.045 1.99-0.719 0.735-1.423 1.482-2.11 2.242-0.697 0.759-1.345 1.478-1.945 2.156v0l-2.415-2.587c0.6-0.678 1.205-1.351 1.814-2.02 0.609-0.659 1.231-1.308 1.867-1.947v0l-0.373-0.4c-1.046 0.405-2.137 0.658-3.276 0.759-1.133 0.097-2.268-0.05-3.403-0.44-1.131-0.386-2.185-1.102-3.161-2.149zM224.661 63.195v0c0.421 0.451 0.916 0.84 1.486 1.169 0.58 0.329 1.249 0.57 2.008 0.723 0.764 0.158 1.599 0.207 2.506 0.15 0.907-0.058 1.875-0.259 2.904-0.604v0l3.081-2.876 0.594 0.942c-0.637-0.022-1.291-0.227-1.962-0.616-0.676-0.394-1.372-0.872-2.089-1.437-0.717-0.555-1.439-1.109-2.166-1.664-0.727-0.555-1.452-1.002-2.176-1.341-0.724-0.348-1.436-0.504-2.137-0.467-0.7 0.037-1.389 0.372-2.067 1.005v0c-0.819 0.764-1.208 1.59-1.168 2.478 0.04 0.888 0.435 1.734 1.186 2.538z" fill="#000000" data-fill-palette-color="primary"></path><path d="M245.043 101.449v0c-0.69-1.723-0.825-3.378-0.405-4.968 0.424-1.598 1.305-3.033 2.645-4.304 1.331-1.276 3.03-2.328 5.097-3.156v0c2.061-0.826 4.01-1.246 5.846-1.26 1.845-0.011 3.466 0.4 4.863 1.232 1.394 0.841 2.44 2.135 3.141 3.883v0c0.574 1.433 0.747 2.728 0.517 3.883-0.238 1.152-0.722 2.199-1.451 3.141-0.727 0.948-1.598 1.776-2.615 2.483v0l0.281 0.701c0.705-0.432 1.449-0.866 2.231-1.301 0.776-0.432 1.548-0.849 2.317-1.249 0.764-0.392 1.46-0.713 2.087-0.965v0l6.109-2.447 1.442 3.599-17.423 6.98-9.985 4-1.287-3.211 5.559-2.003-0.251-0.627c-1.298 0.163-2.512 0.135-3.642-0.083-1.134-0.21-2.13-0.657-2.99-1.341-0.868-0.688-1.563-1.683-2.086-2.987zM248.501 101.017v0c0.377 0.941 0.939 1.702 1.685 2.281 0.746 0.579 1.584 0.986 2.513 1.22 0.929 0.235 1.867 0.32 2.811 0.256 0.941-0.056 1.806-0.242 2.594-0.557v0l0.471-0.189c0.548-0.219 1.109-0.537 1.684-0.953 0.572-0.408 1.127-0.894 1.665-1.46 0.531-0.563 0.981-1.196 1.348-1.9 0.365-0.71 0.58-1.457 0.645-2.24 0.065-0.783-0.064-1.577-0.387-2.383v0c-0.471-1.175-1.197-2.026-2.179-2.554-0.985-0.534-2.134-0.773-3.447-0.718-1.311 0.061-2.683 0.379-4.117 0.953v0c-1.489 0.596-2.703 1.326-3.643 2.188-0.942 0.856-1.561 1.807-1.855 2.853-0.297 1.04-0.227 2.108 0.212 3.203z" fill="#000000" data-fill-palette-color="primary"></path><path d="M11.371 192.826v0c-0.748-2.076-0.953-4.07-0.613-5.982 0.34-1.912 1.204-3.618 2.593-5.12 1.396-1.503 3.312-2.694 5.75-3.572v0c2.525-0.91 4.793-1.195 6.803-0.857 2.01 0.339 3.719 1.143 5.128 2.411 1.408 1.268 2.461 2.871 3.16 4.811v0c0.728 2.02 0.935 3.982 0.62 5.884-0.308 1.901-1.146 3.622-2.513 5.164-1.363 1.534-3.295 2.752-5.796 3.653v0c-2.494 0.899-4.747 1.196-6.758 0.893-2.014-0.31-3.733-1.103-5.158-2.379-1.425-1.276-2.497-2.911-3.216-4.906zM14.583 191.858v0c0.485 1.347 1.234 2.387 2.246 3.122 1.009 0.728 2.209 1.134 3.598 1.218 1.396 0.082 2.92-0.175 4.573-0.771v0c1.708-0.616 3.091-1.421 4.149-2.414 1.049-0.998 1.735-2.126 2.057-3.383 0.322-1.257 0.225-2.6-0.29-4.028v0c-0.476-1.322-1.197-2.355-2.162-3.099-0.968-0.75-2.143-1.176-3.525-1.276-1.384-0.107-2.934 0.148-4.648 0.766v0c-2.637 0.951-4.484 2.306-5.54 4.068-1.062 1.764-1.215 3.696-0.458 5.797z" fill="#000000" data-fill-palette-color="primary"></path><path d="M39.841 237.479l-3.74-4.218 11.779-21.51 3.001 3.384-10.518 17.749 0.422 0.476 18.854-8.346 2.935 3.31z" fill="#000000" data-fill-palette-color="primary"></path><path d="M77.096 266.262v0c-1.599-0.861-2.878-1.861-3.837-3.002-0.965-1.144-1.621-2.4-1.968-3.769-0.344-1.374-0.387-2.805-0.129-4.292 0.258-1.487 0.811-3.018 1.66-4.594v0c0.861-1.599 1.862-2.957 3.005-4.072 1.143-1.116 2.389-1.95 3.74-2.503 1.348-0.561 2.761-0.795 4.238-0.7 1.468 0.098 2.963 0.556 4.486 1.376v0c1.342 0.722 2.446 1.602 3.31 2.639 0.861 1.043 1.429 2.24 1.702 3.592 0.271 1.343 0.226 2.824-0.133 4.444-0.36 1.62-1.09 3.354-2.19 5.201v0l-16.059-8.486 1.314-2.442 13.889 7.317-2.107 0.999c1.017-1.583 1.595-3.033 1.732-4.351 0.132-1.322-0.066-2.478-0.594-3.469-0.533-0.995-1.366-1.797-2.499-2.406v0c-1.202-0.647-2.434-0.904-3.695-0.77-1.261 0.134-2.451 0.66-3.57 1.578-1.122 0.924-2.135 2.226-3.04 3.908v0c-1.3 2.416-1.756 4.549-1.367 6.399 0.395 1.853 1.643 3.345 3.744 4.476v0c0.84 0.452 1.623 0.746 2.349 0.88 0.716 0.137 1.389 0.146 2.018 0.026 0.623-0.124 1.2-0.348 1.728-0.673 0.529-0.325 1.021-0.722 1.477-1.192v0l2.756 2.453c-0.748 0.817-1.565 1.468-2.452 1.955-0.886 0.486-1.834 0.8-2.844 0.942-1.006 0.136-2.059 0.092-3.159-0.131-1.099-0.223-2.268-0.667-3.505-1.333z" fill="#000000" data-fill-palette-color="primary"></path><path d="M118.942 279.36l-4.026-0.635 1.952-12.373 1.653-10.478 3.634 0.573-1.62 7.907 0.756 0.119c0.537-1.7 1.186-3.137 1.948-4.312 0.757-1.182 1.656-2.054 2.697-2.614 1.041-0.56 2.252-0.732 3.634-0.514v0c0.295 0.046 0.631 0.123 1.011 0.23 0.379 0.107 0.804 0.285 1.274 0.534v0l-0.879 4.168c-0.417-0.247-0.843-0.442-1.277-0.584-0.427-0.141-0.847-0.244-1.259-0.309v0c-1.152-0.182-2.205 0.028-3.159 0.629-0.955 0.608-1.812 1.492-2.573 2.653-0.754 1.163-1.43 2.495-2.029 3.998v0z" fill="#000000" data-fill-palette-color="primary"></path><path d="M160.507 279.536l-4.049 0.464-3.564-31.112 4.049-0.464z" fill="#000000" data-fill-palette-color="primary"></path><path d="M199.968 267.048v0c-1.995 0.943-3.961 1.337-5.897 1.181-1.935-0.155-3.717-0.853-5.343-2.093-1.63-1.246-2.998-3.04-4.106-5.382v0c-1.147-2.427-1.648-4.657-1.502-6.691 0.146-2.034 0.782-3.812 1.911-5.334 1.128-1.523 2.623-2.724 4.486-3.605v0c1.941-0.918 3.874-1.311 5.799-1.179 1.921 0.126 3.715 0.795 5.381 2.009 1.657 1.211 3.054 3.017 4.189 5.42v0c1.133 2.397 1.644 4.611 1.534 6.642-0.116 2.034-0.741 3.821-1.875 5.362-1.134 1.54-2.66 2.764-4.577 3.67zM198.698 263.942v0c1.294-0.612 2.259-1.456 2.893-2.533 0.629-1.074 0.918-2.307 0.869-3.698-0.052-1.398-0.453-2.89-1.204-4.478v0c-0.776-1.642-1.709-2.942-2.8-3.9-1.094-0.949-2.282-1.524-3.564-1.724-1.282-0.2-2.609 0.024-3.981 0.672v0c-1.27 0.6-2.23 1.417-2.878 2.449-0.654 1.035-0.966 2.245-0.935 3.63 0.026 1.388 0.428 2.906 1.207 4.554v0c1.198 2.535 2.724 4.243 4.578 5.126 1.857 0.889 3.795 0.856 5.815-0.098z" fill="#000000" data-fill-palette-color="primary"></path><path d="M238.083 239.289v0c-0.861 0.909-1.819 1.564-2.872 1.962-1.053 0.399-2.136 0.482-3.249 0.25-1.113-0.232-2.213-0.863-3.301-1.893v0c-0.799-0.757-1.362-1.569-1.69-2.437-0.328-0.868-0.417-1.815-0.267-2.841 0.15-1.026 0.546-2.157 1.188-3.393 0.641-1.246 1.531-2.662 2.669-4.25v0c0.65-0.908 1.164-1.668 1.541-2.278 0.372-0.615 0.545-1.159 0.519-1.631-0.022-0.468-0.283-0.939-0.784-1.414v0c-0.823-0.779-1.78-1.157-2.872-1.131-1.101 0.035-2.225 0.658-3.374 1.87v0c-0.592 0.626-1.088 1.366-1.486 2.221-0.399 0.855-0.573 1.767-0.524 2.735 0.045 0.974 0.461 1.957 1.247 2.948v0l-3.493 1.853c-0.615-0.902-1.047-1.854-1.295-2.855-0.252-0.996-0.301-2.019-0.146-3.069 0.15-1.045 0.499-2.097 1.046-3.158 0.553-1.056 1.312-2.094 2.279-3.114v0c1.331-1.405 2.681-2.354 4.05-2.845 1.37-0.492 2.769-0.504 4.197-0.037 1.424 0.472 2.903 1.435 4.439 2.89v0l3.739 3.541c0.669 0.633 1.414 1.307 2.235 2.021 0.826 0.718 1.663 1.42 2.511 2.104 0.853 0.68 1.656 1.317 2.408 1.911v0l-2.578 2.721c-0.757-0.589-1.507-1.185-2.249-1.788-0.748-0.599-1.477-1.216-2.188-1.854v0l-0.404 0.426c0.498 1.083 0.839 2.223 1.021 3.418 0.178 1.2 0.096 2.409-0.246 3.629-0.333 1.219-1.023 2.381-2.071 3.488zM236.513 236.132v0c0.451-0.476 0.832-1.028 1.144-1.656 0.306-0.632 0.519-1.353 0.637-2.162 0.114-0.814 0.111-1.702-0.009-2.665-0.12-0.953-0.396-1.963-0.827-3.03v0l-3.248-3.076 0.966-0.687c0.013 0.67-0.162 1.376-0.527 2.117-0.374 0.742-0.836 1.509-1.386 2.302-0.55 0.793-1.094 1.593-1.629 2.4-0.531 0.802-0.958 1.599-1.279 2.39-0.311 0.791-0.427 1.554-0.345 2.288 0.081 0.734 0.48 1.44 1.196 2.12v0c0.866 0.82 1.767 1.18 2.702 1.079 0.935-0.1 1.803-0.574 2.606-1.42z" fill="#000000" data-fill-palette-color="primary"></path><path d="M266.536 195.159v0c-0.743 1.816-1.862 3.176-3.358 4.083-1.495 0.906-3.224 1.351-5.187 1.335-1.957-0.013-4.027-0.467-6.21-1.36v0c-2.177-0.891-3.974-2.014-5.39-3.367-1.409-1.35-2.339-2.859-2.788-4.525-0.443-1.664-0.287-3.419 0.469-5.265v0c0.623-1.521 1.448-2.637 2.477-3.347 1.032-0.702 2.173-1.144 3.422-1.328 1.247-0.177 2.519-0.161 3.816 0.047v0l0.305-0.745c-0.853-0.191-1.737-0.41-2.654-0.656-0.91-0.244-1.806-0.496-2.687-0.757-0.873-0.264-1.641-0.532-2.303-0.803v0l-6.459-2.644 1.56-3.809 18.428 7.544 10.553 4.32-1.39 3.395-5.713-2.575-0.272 0.662c1.112 0.835 2.018 1.753 2.718 2.756 0.702 0.996 1.131 2.074 1.286 3.234 0.149 1.157-0.058 2.425-0.623 3.805zM263.591 192.933v0c0.407-0.994 0.538-1.989 0.395-2.985-0.14-0.988-0.477-1.914-1.011-2.778-0.535-0.863-1.184-1.62-1.95-2.27-0.765-0.65-1.562-1.144-2.39-1.483v0l-0.497-0.203c-0.577-0.236-1.239-0.411-1.987-0.524-0.74-0.117-1.519-0.156-2.337-0.118-0.824 0.035-1.637 0.186-2.44 0.451-0.803 0.266-1.519 0.675-2.146 1.227-0.627 0.552-1.115 1.255-1.464 2.107v0c-0.51 1.245-0.584 2.432-0.223 3.562 0.361 1.129 1.061 2.157 2.1 3.083 1.039 0.927 2.316 1.7 3.831 2.32v0c1.57 0.643 3.034 0.984 4.393 1.025 1.352 0.038 2.527-0.233 3.523-0.814 0.994-0.574 1.728-1.441 2.203-2.6z" fill="#000000" data-fill-palette-color="primary"></path><path d="M2.852 143.474c0-6.229 5.05-11.279 11.279-11.279 6.229 0 11.279 5.05 11.279 11.279 0 6.229-5.05 11.279-11.279 11.279-6.229 0-11.279-5.05-11.279-11.279z" fill="#000000" data-fill-palette-color="primary"></path><path d="M253.38 143.474c0-6.229 5.05-11.279 11.279-11.279 6.229 0 11.279 5.05 11.279 11.279 0 6.229-5.05 11.279-11.279 11.279-6.229 0-11.279-5.05-11.279-11.279z" fill="#000000" data-fill-palette-color="primary"></path></g><g id="text-1"></g></svg></g></svg></g></svg></g></svg></g><defs></defs></svg><rect width="280" height="280" fill="none" stroke="none" visibility="hidden"></rect></g></svg></g></svg>